<svg xmlns="http://www.w3.org/2000/svg" width="24" height="24" fill="none" id="yahoo"><path fill="#000" fill-rule="evenodd" d="M1.5 6A1.5 1.5 0 0 1 3 4.5h18A1.5 1.5 0 0 1 22.5 6v12a1.5 1.5 0 0 1-1.5 1.5H3A1.5 1.5 0 0 1 1.5 18V6ZM3 5.5a.5.5 0 0 0-.5.5v12a.5.5 0 0 0 .5.5h18a.5.5 0 0 0 .5-.5V6a.5.5 0 0 0-.5-.5H3Z" clip-rule="evenodd"></path><path fill="#000" fill-rule="evenodd" d="M4 7.5a.5.5 0 0 1 .5-.5h15a.5.5 0 0 1 .5.5v2a.5.5 0 0 1-.289.453l-7.5 3.5a.5.5 0 0 1-.422 0l-7.5-3.5A.5.5 0 0 1 4 9.5v-2ZM5 8v1.182l7 3.266 7-3.266V8H5Z" clip-rule="evenodd"></path></svg>